<?xml version="1.0" encoding="utf-8"?>
<!-- Generator: Adobe Illustrator 16.0.0, SVG Export Plug-In . SVG Version: 6.00 Build 0)  -->
<!DOCTYPE svg PUBLIC "-//W3C//DTD SVG 1.1//EN" "http://www.w3.org/Graphics/SVG/1.1/DTD/svg11.dtd">
<svg version="1.1" id="Layer_1" xmlns="http://www.w3.org/2000/svg" xmlns:xlink="http://www.w3.org/1999/xlink" x="0px" y="0px"
	 width="1019px" height="363px" viewBox="0 0 1019 363" enable-background="new 0 0 1019 363" xml:space="preserve">
<g>
	<g>
		<path fill="#674272" d="M295.613,139.595c-9.479,14.273-14.003,30.043-14.035,47.108c-0.075,40.479-0.081,80.958-0.1,121.437
			c0,0.963-0.198,2.028,0.817,2.828c17.655,0,35.377,0,53.449,0c0-2.159,0-3.971,0-5.783c0.002-36.814,0.021-73.629-0.021-110.443
			c-0.005-4.515,0.291-8.99,1.032-13.427c2.089-12.504,10.143-18.923,22.258-17.841c8.41,0.751,15.396,6.37,17.939,14.431
			c2.503,7.931-0.276,16.94-6.936,22.482c-6.326,5.266-14.378,5.76-22.358,1.425c-0.959-0.521-1.766-1.607-3.295-1.071
			c0,19.464,0,38.962,0,58.381c48.686,9.615,87.344-30.819,88.592-69.719c0.588-18.332-3.746-34.886-14.357-49.812
			C421.566,138.809,292.268,139.595,295.613,139.595z M962.467,112.666c0,24.848,0.032,49.161-0.039,73.476
			c-0.009,3.143-0.239,6.354-0.913,9.412c-1.181,5.354-5.533,8.164-11.229,7.724c-4.7-0.363-7.994-3.648-8.601-8.841
			c-0.289-2.474-0.305-4.988-0.307-7.484c-0.02-22.989,0.004-45.978-0.035-68.967c-0.004-1.761,0.602-3.655-0.51-5.113
			c-18.067,0-35.955,0-54.042,0c0,30.558,0.001,60.7-0.001,90.844c0,5.519,0.745,10.953,1.933,16.325
			c6.057,27.409,31.181,42.315,58.108,34.761c4.674-1.312,8.81-3.968,13.985-5.383c-2.85,9.799-6.863,18.051-15.137,23.465
			c-12.183,7.971-24.917,5.974-37.813,1.128c0,16.162,0,31.599,0,47.018c15.757,5.834,31.657,7.735,47.797,3.816
			c35.993-8.74,60.512-39.698,60.884-77.541c0.431-43.808,0.166-87.623,0.185-131.436c0.001-1.108,0.372-2.368-0.801-3.203
			C998.318,112.666,980.705,112.666,962.467,112.666z M514.019,257.304c0-2.239,0-4.039,0-5.839
			c-0.001-23.158-0.024-46.317,0.026-69.476c0.007-2.987,0.198-6.005,0.652-8.954c0.812-5.259,3.772-7.831,8.636-7.891
			c5.695-0.071,8.028,1.791,8.97,7.796c0.487,3.104,0.462,6.307,0.467,9.465c0.035,23.159,0.006,46.317,0.048,69.477
			c0.003,1.763-0.556,3.652,0.669,5.355c17.783,0,35.554,0,53.18,0c1.059-1.394,0.715-2.773,0.716-4.065
			c0.018-29.157,0.055-58.313-0.03-87.47c-0.018-5.822-0.642-11.622-1.694-17.374c-5.931-32.404-35.524-47.775-64.31-33.415
			c-2.266,1.13-4.122,3.19-7.608,3.73c0-20.197,0-39.882,0-59.395c-18.307,0-35.912,0-53.726,0c0,66.175,0,132.037,0,198.055
			C477.954,257.304,495.569,257.304,514.019,257.304z M348.896,314.115c181.442,0,362.49,0,543.403,0c0-10.079,0-19.807,0-29.407
			c-181.33,0-362.263,0-543.403,0C348.896,294.564,348.896,304.17,348.896,314.115z M225.558,310.112c12.435,0,24.162,0,35.996,0
			c0-28.479,0.03-56.612-0.039-84.745c-0.008-3.478-0.324-6.989-0.879-10.424c-1.852-11.45-6.782-20.898-18.053-25.699
			c-15.251-6.495-32.264-2.212-42.767,10.554c-0.799,0.972-1.202,2.413-2.684,2.606c-2.337-2.661-4.367-5.586-6.978-7.836
			c-11.173-9.626-23.932-10.488-36.91-4.908c-13.437,5.777-19.765,16.953-19.861,31.358c-0.19,28.483-0.053,56.97-0.017,85.455
			c0.001,1.25-0.463,2.672,0.613,3.609c11.718,0,23.277,0,35.058,0c0-2.202,0-4.028,0-5.854c0-23.654,0.014-47.309-0.02-70.963
			c-0.003-2.519,0.098-5.021,0.91-7.393c0.767-2.236,2.365-3.506,4.92-3.417c2.7,0.093,3.874,1.699,4.196,4.069
			c0.245,1.804,0.289,3.646,0.291,5.471c0.018,24.32-0.003,48.641,0.042,72.962c0.003,1.739-0.592,3.632,0.69,5.275
			c11.652,0,23.251,0,35.408,0c0-1.99,0-3.778,0-5.566c0-24.154-0.014-48.309,0.024-72.462c0.003-2.148,0.029-4.383,0.603-6.419
			c0.635-2.254,2.448-3.408,4.972-3.344c2.728,0.069,3.85,1.706,4.196,4.059c0.241,1.637,0.277,3.313,0.279,4.973
			c0.021,13.326,0.011,26.652,0.011,39.979C225.558,284.253,225.558,297.054,225.558,310.112z M765.105,59.309
			c-18.396,0-36.252,0-54.105,0c0,66.169,0,131.904,0,197.857c18.129,0,36.005,0,54.105,0
			C765.105,191.139,765.105,125.409,765.105,59.309z M800.07,59.167c0,66.293,0,132.155,0,198.075c18.11,0,35.875,0,53.887,0
			c0-66.073,0-131.924,0-198.075C835.885,59.167,818.146,59.167,800.07,59.167z M23.942,233.64
			c0.167,14.48-1.019,29.009,0.739,43.433c1.82,14.938,8.192,27.244,22.96,33.062c12.551,4.944,25.544,4.857,38.018-0.341
			c18.63-7.764,25.787-23.121,25.972-42.266c0.24-24.821,0.064-49.647,0.04-74.472c-0.001-1.107,0.38-2.342-0.738-3.437
			c-11.483,0-23.093,0-35.377,0c0,2.303,0,4.114,0,5.926c0,23.325,0.002,46.649-0.004,69.974c-0.001,2.158,0.05,4.294-0.64,6.423
			c-1.093,3.375-3.061,5.446-6.786,5.517c-3.828,0.072-6.278-1.685-7.45-5.332c-0.724-2.254-0.872-4.547-0.87-6.895
			c0.024-23.325,0.012-46.649,0.011-69.974c0-1.781,0-3.563,0-5.418c-12.215,0-23.912,0-35.912,0L23.942,233.64z M622.031,112.62
			c0,48.489,0,96.53,0,144.531c18.095,0,35.847,0,53.61,0c0-48.33,0-96.352,0-144.531C657.623,112.62,640.004,112.62,622.031,112.62
			z M648.941,99.569c15.833,0.031,27.135-10.523,27.308-25.503c0.163-14.033-12.403-26.275-27.097-26.396
			c-14.545-0.12-27.26,12.063-27.325,26.185C621.758,88.681,633.206,99.538,648.941,99.569z"/>
		<path fill-rule="evenodd" clip-rule="evenodd" fill="#D6423F" d="M962.467,112.666c18.238,0,35.852,0,53.467-0.003
			c1.171,0.838,0.8,2.098,0.799,3.206c-0.019,43.812,0.246,87.628-0.185,131.436c-0.372,37.843-24.891,68.801-60.884,77.541
			c-16.14,3.919-32.04,2.018-47.797-3.816c0-15.419,0-30.855,0-47.018c12.896,4.846,25.631,6.843,37.813-1.128
			c8.273-5.414,12.287-13.666,15.137-23.465c-5.176,1.415-9.312,4.071-13.985,5.383c-26.928,7.555-52.052-7.352-58.108-34.761
			c-1.188-5.372-1.933-10.807-1.933-16.325c0.002-30.144,0.001-60.286,0.001-90.844c18.087,0,35.975,0,54.042,0
			c1.111,1.458,0.506,3.353,0.51,5.113c0.039,22.989,0.016,45.978,0.035,68.967c0.002,2.496,0.018,5.011,0.307,7.484
			c0.606,5.192,3.9,8.478,8.601,8.841c5.695,0.44,10.048-2.369,11.229-7.724c0.674-3.059,0.904-6.27,0.913-9.412
			C962.499,161.827,962.467,137.514,962.467,112.666z"/>
		<path fill-rule="evenodd" clip-rule="evenodd" fill="#D6423E" d="M514.019,257.304c-18.449,0-36.064,0-54.005,0
			c0-66.018,0-131.88,0-198.055c17.813,0,35.419,0,53.726,0c0,19.513,0,39.197,0,59.395c3.486-0.54,5.343-2.601,7.608-3.73
			c28.785-14.36,58.379,1.011,64.31,33.415c1.053,5.752,1.677,11.552,1.694,17.374c0.085,29.156,0.048,58.312,0.03,87.47
			c-0.001,1.292,0.343,2.672-0.716,4.065c-17.626,0-35.396,0-53.18,0c-1.225-1.703-0.666-3.593-0.669-5.355
			c-0.042-23.159-0.013-46.317-0.048-69.477c-0.005-3.158,0.021-6.361-0.467-9.465c-0.941-6.005-3.274-7.867-8.97-7.796
			c-4.863,0.06-7.824,2.632-8.636,7.891c-0.454,2.949-0.646,5.967-0.652,8.954c-0.051,23.158-0.027,46.317-0.026,69.476
			C514.019,253.265,514.019,255.064,514.019,257.304z"/>
		<path fill-rule="evenodd" clip-rule="evenodd" fill="#D6423F" d="M418.598,139.592c10.613,14.925,14.947,31.479,14.359,49.811
			c-1.248,38.899-39.906,79.334-88.592,69.719c0-19.419,0-38.917,0-58.381c1.529-0.536,2.336,0.55,3.295,1.071
			c7.98,4.335,16.032,3.841,22.358-1.425c6.659-5.542,9.438-14.552,6.936-22.482c-2.544-8.061-9.529-13.68-17.939-14.431
			c-12.115-1.082-20.169,5.337-22.258,17.841c-0.741,4.437-1.037,8.912-1.032,13.427c0.042,36.814,0.022,73.629,0.021,110.443
			c0,1.812,0,3.624,0,5.783c-18.072,0-35.794,0-53.449,0c-1.015-0.8-0.817-1.865-0.817-2.828c0.019-40.479,0.025-80.958,0.1-121.437
			c0.032-17.065,4.556-32.835,14.035-47.108C336.607,139.594,377.603,139.593,418.598,139.592z"/>
		<path fill-rule="evenodd" clip-rule="evenodd" fill="#674172" d="M348.896,314.115c0-9.945,0-19.551,0-29.407
			c181.141,0,362.073,0,543.403,0c0,9.601,0,19.328,0,29.407C711.386,314.115,530.338,314.115,348.896,314.115z"/>
		<path fill-rule="evenodd" clip-rule="evenodd" fill="#D74440" d="M765.105,59.309c0,66.101,0,131.83,0,197.857
			c-18.101,0-35.977,0-54.105,0c0-65.953,0-131.688,0-197.857C728.854,59.309,746.71,59.309,765.105,59.309z"/>
		<path fill-rule="evenodd" clip-rule="evenodd" fill="#D74440" d="M800.07,59.167c18.075,0,35.814,0,53.887,0
			c0,66.151,0,132.002,0,198.075c-18.012,0-35.776,0-53.887,0C800.07,191.322,800.07,125.46,800.07,59.167z"/>
		<path fill-rule="evenodd" clip-rule="evenodd" fill="#D6423E" d="M622.031,112.62c17.973,0,35.592,0,53.61,0
			c0,48.18,0,96.201,0,144.531c-17.764,0-35.516,0-53.61,0C622.031,209.15,622.031,161.109,622.031,112.62z"/>
		<path fill-rule="evenodd" clip-rule="evenodd" fill="#D64340" d="M648.941,99.569c-15.735-0.031-27.184-10.889-27.114-25.715
			c0.065-14.121,12.78-26.305,27.325-26.185c14.693,0.121,27.26,12.363,27.097,26.396C676.076,89.046,664.774,99.601,648.941,99.569
			z"/>
		<g>
			<path fill-rule="evenodd" clip-rule="evenodd" fill="#674272" d="M358.004,102.91c-41.679,0-62.586,35.503-62.166,36.757
				c2.739,0,87.745,0.002,122.925,0C421.309,139.003,399.683,102.91,358.004,102.91z"/>
			<path fill="#6D6E71" d="M371.866,140.092l-76.338-0.001l-0.098-0.291c-0.261-0.777,2.125-4.452,3.792-6.732
				c5.241-7.174,24.972-30.583,58.781-30.583c20.752,0,35.979,8.922,45.1,16.406c10.029,8.23,15.924,17.483,16.272,20.135
				c0.105,0.802-0.318,1.002-0.504,1.051l-0.109,0.014L371.866,140.092z M296.372,139.242h122.17c0-0.674-1.035-3.159-3.858-7.027
				c-3.519-4.823-22.788-28.881-56.68-28.881C319.049,103.334,298.074,134.852,296.372,139.242z"/>
		</g>
	</g>
	<path fill-rule="evenodd" clip-rule="evenodd" fill="#674272" d="M149.327,152.268c-9.855-6.84-19.102-13.258-28.623-19.866
		c22.783-32.827,45.449-65.483,68.147-98.187c0.243-0.023,0.682-0.208,0.878-0.063c16.082,11.791,32.921,22.709,47.957,35.713
		c11.457,9.909,13.764,24.108,8.449,38.556c-5.294,14.394-15.529,23.489-31.121,25.344c-3.984,0.474-5.211,2.16-5.932,5.748
		c-2.811,14.02-5.909,27.981-8.917,41.963c-0.342,1.59-0.778,3.16-1.334,5.395c-9.819-6.814-19.244-13.273-28.524-19.934
		c-0.869-0.622-1.342-2.602-1.131-3.797c2.235-12.609,4.638-25.189,7.029-37.773c0.182-0.957,0.432-1.996,0.967-2.779
		c5.351-7.811,10.769-15.576,16.359-23.631c1.829,1.107,3.312,2.097,4.878,2.934c4.851,2.594,9.224,1.67,12.364-2.547
		c2.829-3.798,2.66-7.965-1.268-11.635c-2.869-2.68-6.442-4.606-10.311-7.29C182.569,104.373,166.007,128.236,149.327,152.268z"/>
	<path fill-rule="evenodd" clip-rule="evenodd" fill="#674272" d="M93.87,79.711c-3.287-5.038-7.625-6.341-12.493-4.729
		c-5.004,1.655-5.4,6.305-5.542,10.71c-0.143,4.463-0.031,8.934-0.031,13.935c4.01,0.195,7.578,0.368,11.571,0.562
		c0,10.618,0,21.143,0,32.262c-3.69,0-7.267,0-11.408,0c0,10.814,0,21.062,0,31.657c-11.802,0-23.022,0-34.764,0
		c-0.096-1.754-0.274-3.518-0.276-5.282c-0.018-23.642-0.041-47.283-0.002-70.926c0.044-25.998,16.898-44.458,42.729-46.885
		c14.218-1.336,30.263,6.263,38.532,18.405C112.885,66.085,103.578,72.754,93.87,79.711z"/>
</g>
</svg>
